<?xml version="1.0" encoding="UTF-8"?>
<svg xmlns="http://www.w3.org/2000/svg" xmlns:xlink="http://www.w3.org/1999/xlink" width="32px" height="75px" viewBox="0 0 32 75" version="1.1">
<g id="surface1">
<path style=" stroke:none;fill-rule:nonzero;fill:rgb(52.156863%,66.666667%,69.803922%);fill-opacity:1;" d="M 15.988281 0.375 C 12.789062 2.828125 10.03125 5.921875 8.207031 9.511719 C 6.316406 13.113281 5.339844 17.121094 4.902344 21.136719 C 4.667969 23.191406 4.566406 25.257812 4.511719 27.324219 C 4.40625 30.195312 4.800781 33.066406 5.328125 35.886719 C 5.355469 36.078125 5.429688 36.265625 5.402344 36.460938 C 5.273438 36.328125 5.304688 36.066406 5.21875 35.949219 C 3.550781 37.664062 2.144531 39.660156 1.207031 41.859375 C 0.53125 43.503906 0.0195312 45.273438 0.199219 47.0625 C 0.328125 49.390625 0.511719 51.714844 0.847656 54.023438 C 0.996094 54.925781 1.136719 55.839844 1.457031 56.699219 C 1.578125 56.984375 1.707031 57.332031 2.042969 57.414062 C 2.582031 57.589844 3.351562 57.582031 3.648438 57.019531 C 5.394531 54.328125 7.078125 51.550781 8.84375 48.855469 C 9.3125 50.082031 9.707031 51.34375 10.199219 52.5625 C 10.878906 52.921875 11.625 53.148438 12.332031 53.4375 C 11.265625 54.785156 10.761719 56.511719 10.519531 58.183594 C 10.15625 61.214844 10.78125 64.289062 11.890625 67.140625 C 12.9375 69.785156 14.355469 72.304688 16 74.609375 C 16.035156 74.617188 16.074219 74.617188 16.089844 74.582031 C 17.414062 72.832031 18.570312 70.957031 19.527344 68.984375 C 20.917969 66.132812 21.957031 63.007812 21.871094 59.800781 C 21.832031 57.53125 21.105469 55.253906 19.714844 53.441406 C 20.417969 53.171875 21.140625 52.925781 21.820312 52.59375 C 22.332031 51.402344 22.703125 50.152344 23.167969 48.941406 C 23.191406 48.957031 23.214844 48.972656 23.234375 48.992188 C 24.949219 51.664062 26.632812 54.382812 28.34375 57.039062 C 28.492188 57.367188 28.90625 57.496094 29.242188 57.511719 C 29.625 57.472656 30.136719 57.472656 30.332031 57.070312 C 30.609375 56.5625 30.738281 55.984375 30.867188 55.421875 C 31.457031 52.449219 31.628906 49.417969 31.8125 46.398438 C 31.8125 45.664062 31.695312 44.929688 31.539062 44.210938 C 30.789062 41.058594 28.976562 38.21875 26.714844 35.917969 C 27.226562 33.058594 27.652344 30.15625 27.515625 27.246094 C 27.40625 23.035156 27.066406 18.785156 25.894531 14.714844 C 25.375 12.929688 24.707031 11.179688 23.835938 9.53125 C 21.980469 5.941406 19.246094 2.8125 16.019531 0.382812 C 16.011719 0.378906 15.996094 0.378906 15.988281 0.375 Z M 15.988281 0.375 "/>
<path style=" stroke:none;fill-rule:nonzero;fill:rgb(88.627451%,20.784314%,14.509804%);fill-opacity:1;" d="M 15.988281 0.375 C 12.789062 2.828125 10.03125 5.921875 8.207031 9.511719 C 10.480469 10.769531 13.050781 11.503906 15.652344 11.609375 C 15.773438 11.59375 15.902344 11.601562 16.019531 11.566406 C 16.019531 7.835938 16.015625 4.109375 16.019531 0.382812 C 16.011719 0.378906 15.996094 0.378906 15.988281 0.375 Z M 15.96875 34.351562 C 15.953125 34.351562 15.9375 34.371094 15.925781 34.386719 C 14.738281 38.074219 14.398438 41.972656 14.269531 45.820312 C 14.25 48.503906 14.246094 51.210938 14.703125 53.863281 C 14.949219 55.105469 15.160156 56.449219 15.957031 57.476562 C 16.019531 57.382812 15.984375 57.257812 16 57.152344 C 15.992188 49.558594 16 41.960938 15.996094 34.363281 C 15.984375 34.355469 15.976562 34.351562 15.96875 34.351562 Z M 5.21875 35.949219 C 3.550781 37.664062 2.144531 39.660156 1.207031 41.859375 C 0.53125 43.5 0.0195312 45.273438 0.199219 47.0625 C 0.328125 49.386719 0.511719 51.714844 0.847656 54.023438 C 0.996094 54.925781 1.136719 55.839844 1.457031 56.699219 C 1.578125 56.984375 1.707031 57.332031 2.042969 57.410156 C 2.582031 57.585938 3.351562 57.582031 3.648438 57.019531 C 3.730469 56.242188 3.933594 55.488281 4.179688 54.75 C 5.128906 52.054688 6.605469 49.574219 8.222656 47.230469 C 8.285156 47.085938 8.296875 47.296875 8.355469 47.335938 C 7.382812 43.707031 6.371094 40.089844 5.402344 36.457031 C 5.273438 36.328125 5.304688 36.066406 5.21875 35.949219 Z M 4.140625 39.089844 C 4.230469 39.085938 4.316406 39.152344 4.316406 39.253906 C 4.394531 39.734375 4.257812 40.210938 4.15625 40.675781 C 3.914062 41.605469 3.585938 42.515625 3.15625 43.375 C 2.789062 44.144531 2.511719 44.957031 2.121094 45.714844 C 2.054688 45.828125 1.90625 46.078125 1.757812 45.9375 C 1.394531 45.230469 1.492188 44.390625 1.675781 43.644531 C 2.003906 42.375 2.554688 41.175781 3.183594 40.03125 C 3.4375 39.6875 3.6875 39.308594 4.074219 39.105469 C 4.097656 39.097656 4.117188 39.09375 4.140625 39.089844 Z M 4.140625 39.089844 "/>
<path style=" stroke:none;fill-rule:nonzero;fill:rgb(77.647059%,17.254902%,14.117647%);fill-opacity:1;" d="M 16.019531 0.382812 C 16.015625 4.109375 16.019531 7.835938 16.019531 11.566406 C 15.902344 11.601562 15.773438 11.59375 15.652344 11.609375 C 15.679688 11.609375 15.707031 11.613281 15.734375 11.613281 C 18.5625 11.722656 21.414062 10.984375 23.835938 9.53125 C 21.980469 5.941406 19.246094 2.8125 16.019531 0.382812 Z M 16.019531 34.207031 C 16.007812 34.214844 15.984375 34.222656 15.972656 34.230469 C 15.953125 34.28125 15.941406 34.335938 15.925781 34.386719 C 15.941406 34.363281 15.964844 34.332031 15.996094 34.363281 C 16 41.960938 15.992188 49.558594 16 57.15625 C 15.984375 57.257812 16.019531 57.382812 15.957031 57.480469 C 15.960938 57.492188 15.964844 57.515625 15.96875 57.53125 C 16.015625 57.542969 16.042969 57.503906 16.066406 57.46875 C 16.8125 56.421875 17.054688 55.121094 17.292969 53.886719 C 17.730469 51.164062 17.78125 48.398438 17.726562 45.648438 C 17.59375 41.796875 17.226562 37.894531 16.019531 34.210938 Z M 26.714844 35.917969 C 25.992188 39.746094 24.921875 43.496094 23.746094 47.207031 C 24.800781 48.726562 25.773438 50.3125 26.605469 51.964844 C 27.402344 53.570312 28.117188 55.253906 28.34375 57.039062 C 28.492188 57.363281 28.90625 57.496094 29.242188 57.511719 C 29.625 57.472656 30.136719 57.472656 30.332031 57.070312 C 30.609375 56.5625 30.738281 55.984375 30.867188 55.421875 C 31.457031 52.449219 31.628906 49.414062 31.8125 46.398438 C 31.8125 45.664062 31.695312 44.929688 31.539062 44.210938 C 30.789062 41.058594 28.976562 38.214844 26.714844 35.917969 Z M 26.714844 35.917969 "/>
<path style=" stroke:none;fill-rule:nonzero;fill:rgb(97.647059%,97.647059%,97.647059%);fill-opacity:1;" d="M 8.207031 9.511719 C 6.316406 13.113281 5.339844 17.121094 4.902344 21.136719 C 4.667969 23.191406 4.566406 25.257812 4.511719 27.324219 C 4.40625 30.195312 4.800781 33.066406 5.328125 35.886719 C 5.355469 36.078125 5.429688 36.265625 5.402344 36.460938 C 6.371094 40.089844 7.382812 43.710938 8.355469 47.339844 C 8.5 47.851562 8.652344 48.359375 8.84375 48.855469 C 9.3125 50.082031 9.707031 51.34375 10.199219 52.5625 C 10.878906 52.921875 11.625 53.148438 12.332031 53.4375 C 12.929688 53.625 13.539062 53.769531 14.160156 53.851562 C 14.335938 53.867188 14.542969 53.960938 14.703125 53.863281 C 14.246094 51.210938 14.25 48.503906 14.269531 45.820312 C 14.398438 41.972656 14.738281 38.074219 15.925781 34.386719 C 15.941406 34.335938 15.953125 34.28125 15.972656 34.230469 C 16.027344 31.460938 15.980469 28.660156 15.996094 25.875 C 14.277344 25.820312 12.703125 24.863281 11.652344 23.554688 C 10.140625 21.652344 10.15625 18.746094 11.703125 16.867188 C 12.71875 15.578125 14.34375 14.785156 15.996094 14.789062 C 16.003906 13.738281 15.980469 12.6875 16.007812 11.636719 C 15.917969 11.625 15.824219 11.621094 15.734375 11.613281 C 15.707031 11.613281 15.679688 11.609375 15.652344 11.609375 C 13.050781 11.503906 10.480469 10.769531 8.207031 9.511719 Z M 15.765625 17.597656 C 15.738281 17.597656 15.710938 17.597656 15.6875 17.597656 C 15.109375 17.617188 14.730469 18.332031 15.066406 18.808594 C 15.359375 19.320312 16.210938 19.269531 16.445312 18.734375 C 16.726562 18.25 16.308594 17.597656 15.765625 17.597656 Z M 14.082031 19.140625 C 14.054688 19.140625 14.027344 19.140625 14 19.144531 C 13.125 19.335938 12.707031 20.746094 13.46875 21.285156 C 14.25 21.546875 14.792969 20.589844 14.734375 19.925781 C 14.742188 19.558594 14.480469 19.132812 14.082031 19.140625 Z M 14.082031 19.140625 "/>
<path style=" stroke:none;fill-rule:nonzero;fill:rgb(90.980392%,90.980392%,90.980392%);fill-opacity:1;" d="M 15.734375 11.613281 C 18.5625 11.722656 21.414062 10.984375 23.835938 9.53125 C 24.707031 11.179688 25.375 12.929688 25.894531 14.714844 C 27.066406 18.785156 27.402344 23.035156 27.511719 27.246094 C 27.652344 30.15625 27.226562 33.058594 26.714844 35.917969 C 25.992188 39.746094 24.921875 43.496094 23.746094 47.207031 C 23.550781 47.785156 23.355469 48.359375 23.167969 48.941406 C 22.703125 50.152344 22.332031 51.402344 21.820312 52.59375 C 21.140625 52.925781 20.417969 53.171875 19.714844 53.441406 C 19.125 53.601562 18.535156 53.757812 17.933594 53.84375 C 17.71875 53.851562 17.5 53.9375 17.289062 53.886719 C 17.730469 51.164062 17.777344 48.398438 17.722656 45.648438 C 17.59375 41.796875 17.226562 37.894531 16.015625 34.210938 C 16.003906 34.214844 15.984375 34.226562 15.972656 34.230469 C 16.027344 31.460938 15.980469 28.660156 15.996094 25.875 C 17.695312 25.972656 19.402344 25.207031 20.480469 23.90625 C 21.847656 22.308594 22.132812 19.902344 21.1875 18.035156 C 20.21875 16.136719 18.164062 14.765625 15.996094 14.789062 C 16.003906 13.738281 15.980469 12.6875 16.007812 11.636719 C 15.917969 11.625 15.824219 11.621094 15.734375 11.613281 Z M 15.734375 11.613281 "/>
<path style=" stroke:none;fill-rule:nonzero;fill:rgb(22.745098%,22.745098%,22.745098%);fill-opacity:1;" d="M 11.703125 16.867188 C 12.71875 15.578125 14.34375 14.785156 15.996094 14.789062 C 18.164062 14.765625 20.21875 16.136719 21.1875 18.035156 C 22.132812 19.902344 21.847656 22.308594 20.480469 23.90625 C 19.402344 25.207031 17.695312 25.972656 15.996094 25.875 C 14.277344 25.820312 12.699219 24.863281 11.652344 23.554688 C 10.140625 21.652344 10.15625 18.746094 11.703125 16.867188 M 14.394531 16.359375 C 12.921875 16.953125 11.855469 18.429688 11.789062 20.007812 C 11.738281 21.019531 12.042969 22.074219 12.714844 22.851562 C 13.570312 23.980469 15.074219 24.589844 16.488281 24.414062 C 17.570312 24.300781 18.597656 23.746094 19.285156 22.90625 C 20.078125 21.957031 20.421875 20.652344 20.167969 19.445312 C 19.957031 18.320312 19.253906 17.304688 18.277344 16.699219 C 17.164062 15.945312 15.636719 15.839844 14.394531 16.359375 Z M 14.394531 16.359375 "/>
<path style=" stroke:none;fill-rule:nonzero;fill:rgb(71.372549%,88.627451%,93.72549%);fill-opacity:1;" d="M 13.15625 18.519531 C 14.230469 16.890625 16.40625 16.128906 18.277344 16.699219 C 19.253906 17.304688 19.957031 18.320312 20.167969 19.445312 C 20.421875 20.652344 20.078125 21.957031 19.285156 22.90625 C 18.601562 23.746094 17.570312 24.300781 16.488281 24.414062 C 15.078125 24.589844 13.570312 23.980469 12.714844 22.851562 C 12.144531 21.449219 12.277344 19.773438 13.15625 18.519531 M 15.6875 17.597656 C 15.109375 17.617188 14.730469 18.332031 15.066406 18.808594 C 15.359375 19.320312 16.210938 19.269531 16.445312 18.734375 C 16.742188 18.222656 16.265625 17.535156 15.6875 17.597656 M 14 19.144531 C 13.125 19.335938 12.707031 20.746094 13.46875 21.285156 C 14.25 21.546875 14.792969 20.589844 14.734375 19.925781 C 14.742188 19.53125 14.441406 19.078125 14 19.144531 Z M 14 19.144531 "/>
<path style=" stroke:none;fill-rule:nonzero;fill:rgb(95.686275%,32.54902%,28.627451%);fill-opacity:1;" d="M 4.074219 39.105469 C 4.183594 39.0625 4.316406 39.132812 4.316406 39.253906 C 4.394531 39.738281 4.257812 40.210938 4.15625 40.679688 C 3.910156 41.605469 3.585938 42.515625 3.15625 43.375 C 2.789062 44.144531 2.511719 44.957031 2.121094 45.714844 C 2.050781 45.828125 1.90625 46.078125 1.753906 45.941406 C 1.394531 45.230469 1.488281 44.390625 1.675781 43.644531 C 2.003906 42.378906 2.554688 41.175781 3.183594 40.03125 C 3.433594 39.691406 3.6875 39.308594 4.074219 39.105469 Z M 4.074219 39.105469 "/>
<path style=" stroke:none;fill-rule:nonzero;fill:rgb(61.960784%,11.764706%,11.372549%);fill-opacity:1;" d="M 8.261719 47.179688 C 8.25 47.179688 8.234375 47.195312 8.21875 47.230469 C 6.601562 49.574219 5.125 52.054688 4.175781 54.75 C 3.933594 55.488281 3.730469 56.242188 3.644531 57.019531 C 5.394531 54.328125 7.078125 51.550781 8.839844 48.855469 C 8.652344 48.359375 8.5 47.847656 8.355469 47.335938 C 8.3125 47.308594 8.292969 47.179688 8.261719 47.179688 Z M 23.742188 47.207031 C 23.550781 47.785156 23.355469 48.359375 23.167969 48.941406 C 23.1875 48.957031 23.210938 48.972656 23.230469 48.988281 C 24.949219 51.660156 26.632812 54.382812 28.34375 57.039062 C 28.113281 55.253906 27.402344 53.570312 26.605469 51.964844 C 25.773438 50.3125 24.800781 48.730469 23.742188 47.207031 Z M 23.742188 47.207031 "/>
<path style=" stroke:none;fill-rule:nonzero;fill:rgb(92.156863%,61.568627%,12.941176%);fill-opacity:1;" d="M 12.332031 53.4375 C 12.929688 53.621094 13.539062 53.769531 14.160156 53.847656 C 13.433594 55.011719 13.179688 56.40625 13.203125 57.761719 C 13.304688 60.574219 14.484375 63.226562 15.96875 65.582031 C 15.984375 65.605469 16 65.628906 16.011719 65.65625 C 15.976562 68.640625 16 71.625 16 74.609375 C 14.355469 72.304688 12.9375 69.785156 11.890625 67.140625 C 10.78125 64.289062 10.15625 61.214844 10.519531 58.183594 C 10.761719 56.511719 11.265625 54.785156 12.332031 53.4375 Z M 12.332031 53.4375 "/>
<path style=" stroke:none;fill-rule:nonzero;fill:rgb(82.745098%,53.72549%,11.764706%);fill-opacity:1;" d="M 17.933594 53.84375 C 18.539062 53.757812 19.125 53.601562 19.714844 53.441406 C 21.105469 55.253906 21.832031 57.53125 21.871094 59.800781 C 21.957031 63.007812 20.917969 66.132812 19.527344 68.984375 C 18.570312 70.957031 17.414062 72.832031 16.089844 74.582031 C 16.074219 74.617188 16.035156 74.617188 16 74.609375 C 16 71.625 15.976562 68.640625 16.011719 65.65625 C 17.378906 63.660156 18.464844 61.421875 18.867188 59.023438 C 19.179688 57.261719 18.9375 55.359375 17.933594 53.84375 Z M 17.933594 53.84375 "/>
<path style=" stroke:none;fill-rule:nonzero;fill:rgb(98.039216%,93.333333%,11.764706%);fill-opacity:1;" d="M 14.160156 53.851562 C 14.335938 53.867188 14.542969 53.960938 14.703125 53.863281 C 14.949219 55.109375 15.160156 56.453125 15.957031 57.480469 C 15.960938 57.492188 15.964844 57.519531 15.96875 57.53125 C 15.980469 60.214844 15.976562 62.898438 15.96875 65.585938 C 14.484375 63.230469 13.304688 60.574219 13.203125 57.761719 C 13.179688 56.410156 13.433594 55.015625 14.160156 53.851562 Z M 14.160156 53.851562 "/>
<path style=" stroke:none;fill-rule:nonzero;fill:rgb(87.058824%,81.176471%,11.764706%);fill-opacity:1;" d="M 17.289062 53.886719 C 17.5 53.9375 17.71875 53.851562 17.933594 53.847656 C 18.9375 55.359375 19.179688 57.265625 18.863281 59.027344 C 18.464844 61.425781 17.378906 63.660156 16.011719 65.660156 C 16 65.632812 15.980469 65.609375 15.96875 65.585938 C 15.976562 62.898438 15.980469 60.214844 15.964844 57.53125 C 16.015625 57.546875 16.042969 57.507812 16.0625 57.472656 C 16.8125 56.425781 17.050781 55.125 17.289062 53.886719 Z M 17.289062 53.886719 "/>
</g>
</svg>
